<svg width="16" height="16" viewBox="0 0 16 16" xmlns="http://www.w3.org/2000/svg">
  <!-- Book base -->
  <path d="M1 12 L15 12 L14 14 L2 14 Z" fill="#3b82f6"/>
  
  <!-- Book pages -->
  <path d="M2 12 L14 12 L13 10 L8 10 L8 3 L3 3 Z" fill="#1e40af" stroke="#1e40af" stroke-width="0.3"/>
  <path d="M8 10 L13 10 L14 12 L8 12 Z" fill="#1e40af" stroke="#1e40af" stroke-width="0.3"/>
  
  <!-- Brain circle -->
  <circle cx="8" cy="6" r="4" fill="none" stroke="#3b82f6" stroke-width="0.8"/>
  
  <!-- Brain bubble pointer -->
  <path d="M6 9 L5 11 L8 10 Z" fill="#3b82f6"/>
  
  <!-- Brain outline -->
  <path d="M6 4 C5 3.5, 4 4, 4 5 C3.5 4.5, 3 5, 3 6 C3 7, 3.5 7.5, 4.5 7.5 C4 8, 4 9, 5 9.5 C6 10, 7 9.5, 8 8.5 C9 9.5, 10 10, 11 9.5 C12 9, 12 8, 11.5 7.5 C12.5 7.5, 13 7, 13 6 C13 5, 12.5 4.5, 12 5 C12 4, 11.5 3.5, 11 4 C11 3.5, 10 3, 9 3.5 C8.5 3, 7.5 3, 7 3.5 C6.5 3, 6 3.5, 6 4 Z" 
        fill="none" stroke="#3b82f6" stroke-width="0.5"/>
  
  <!-- Brain neural connections -->
  <circle cx="6" cy="6" r="0.4" fill="#3b82f6"/>
  <circle cx="8" cy="5" r="0.4" fill="#3b82f6"/>
  <circle cx="10" cy="6.5" r="0.4" fill="#3b82f6"/>
  <circle cx="7" cy="7.5" r="0.4" fill="#3b82f6"/>
  
  <!-- Neural pathways -->
  <path d="M6 6 L8 5 M8 5 L10 6.5 M6 6 L7 7.5 M10 6.5 L7 7.5" 
        stroke="#3b82f6" stroke-width="0.3" fill="none"/>
</svg>
