<svg width="32" height="32" viewBox="0 0 100 100" xmlns="http://www.w3.org/2000/svg">
  <!-- Book base -->
  <path d="M10 75 L90 75 L85 85 L15 85 Z" fill="currentColor" opacity="0.9"/>
  
  <!-- Book pages -->
  <path d="M15 75 L85 75 L80 65 L50 65 L50 20 L20 20 Z" fill="currentColor" opacity="0.8" stroke="currentColor" stroke-width="1.5"/>
  <path d="M50 65 L80 65 L85 75 L50 75 Z" fill="currentColor" opacity="0.8" stroke="currentColor" stroke-width="1.5"/>
  
  <!-- Book spine lines -->
  <line x1="22" y1="25" x2="22" y2="70" stroke="currentColor" stroke-width="0.5"/>
  <line x1="25" y1="25" x2="25" y2="70" stroke="currentColor" stroke-width="0.5"/>
  <line x1="77" y1="65" x2="77" y2="75" stroke="currentColor" stroke-width="0.5"/>
  <line x1="80" y1="65" x2="80" y2="75" stroke="currentColor" stroke-width="0.5"/>
  
  <!-- Brain speech bubble -->
  <circle cx="50" cy="35" r="25" fill="none" stroke="currentColor" stroke-width="2.5"/>
  
  <!-- Brain speech bubble pointer -->
  <path d="M35 50 L30 60 L45 55 Z" fill="currentColor"/>
  
  <!-- Brain outline -->
  <path d="M35 25 C30 22, 25 25, 25 30 C23 28, 20 30, 20 35 C18 33, 15 35, 15 40 C15 45, 18 48, 22 48 C20 50, 20 55, 25 57 C30 60, 35 58, 40 55 C45 58, 50 60, 55 57 C60 55, 60 50, 58 48 C62 48, 65 45, 65 40 C65 35, 62 33, 60 35 C60 30, 57 28, 55 30 C55 25, 50 22, 45 25 C42 22, 38 22, 35 25 Z" 
        fill="none" stroke="currentColor" stroke-width="2"/>
  
  <!-- Brain neural connections -->
  <circle cx="35" cy="35" r="1.5" fill="currentColor"/>
  <circle cx="45" cy="30" r="1.5" fill="currentColor"/>
  <circle cx="55" cy="38" r="1.5" fill="currentColor"/>
  <circle cx="40" cy="45" r="1.5" fill="currentColor"/>
  
  <!-- Neural pathways -->
  <path d="M35 35 L45 30 M45 30 L55 38 M35 35 L40 45 M55 38 L40 45" 
        stroke="currentColor" stroke-width="1" fill="none"/>
  
  <!-- Brain hemisphere divider -->
  <path d="M35 25 C40 28, 45 32, 50 35 C45 38, 40 42, 35 45 C32 42, 30 38, 30 35 C30 32, 32 28, 35 25" 
        stroke="currentColor" stroke-width="1.5" fill="none"/>
</svg>
